<?xml version="1.0" encoding="utf-8"?>
<!-- Generator: Adobe Illustrator 16.0.0, SVG Export Plug-In . SVG Version: 6.00 Build 0)  -->
<!DOCTYPE svg PUBLIC "-//W3C//DTD SVG 1.1//EN" "http://www.w3.org/Graphics/SVG/1.1/DTD/svg11.dtd">
<svg version="1.1" id="Camada_1" xmlns="http://www.w3.org/2000/svg" xmlns:xlink="http://www.w3.org/1999/xlink" x="0px" y="0px"
	 width="490.152px" height="490.152px" viewBox="0 0 490.152 490.152" enable-background="new 0 0 490.152 490.152"
	 xml:space="preserve">
<path fill-rule="evenodd" clip-rule="evenodd" fill="#A2D2FF" d="M270.196,166.608c-7.037,0-12.741-5.705-12.741-12.742V51.056l0,0
	c0-14.074-11.409-25.483-25.484-25.483l0,0h-98.766c-30.238,0-54.751,24.513-54.751,54.751v312.812
	c0,30.238,24.513,54.751,54.751,54.751h210.839c30.238,0,54.751-24.513,54.751-54.751l-0.341-201.023v-0.02l0,0
	c-0.001-14.075-11.409-25.483-25.483-25.483l-0.001,0l-0.016,0H270.196z"/>
<path fill-rule="evenodd" clip-rule="evenodd" fill="#A2D2FF" d="M283.712,127.791L283.712,127.791L283.712,127.791V25.572
	l114.96,114.96H296.453v0l0,0C289.416,140.532,283.712,134.828,283.712,127.791z"/>
<path fill-rule="evenodd" clip-rule="evenodd" fill="#0139B9" d="M147.351,189.672h182.549v22.465H147.351V189.672L147.351,189.672z
	 M147.351,326.55h182.549v22.465H147.351V326.55L147.351,326.55z M147.351,280.924h182.549v22.465H147.351V280.924L147.351,280.924z
	 M147.351,235.298h182.549v22.464H147.351V235.298z"/>
<path fill-rule="evenodd" clip-rule="evenodd" fill="#A2D2FF" d="M379.528,435.838c24.946,0,45.293-20.347,45.293-45.294
	c0-24.946-20.347-45.293-45.293-45.293c-24.947,0-45.294,20.347-45.294,45.293C334.234,415.491,354.581,435.838,379.528,435.838z"/>
<path fill-rule="evenodd" clip-rule="evenodd" fill="#0139B9" d="M334.234,345.251c24.945-24.944,65.389-24.944,90.333,0
	c19.378,19.378,23.696,48.106,12.969,71.658l21.325,21.326c7.827,7.827,7.827,20.635,0,28.463l-3.18,3.18
	c-7.827,7.827-20.636,7.827-28.463,0l-21.326-21.325c-23.552,10.728-52.28,6.409-71.658-12.969
	C309.29,410.64,309.29,370.196,334.234,345.251L334.234,345.251z M361.104,372.121c-10.104,10.105-10.104,26.488,0,36.593
	c10.105,10.104,26.488,10.104,36.593,0s10.104-26.487,0-36.593C387.593,362.017,371.21,362.017,361.104,372.121z"/>
</svg>
